<?xml version="1.0" encoding="UTF-8" standalone="no"?>
<svg width="400px" height="400px" viewBox="0 0 400 400" version="1.1" xmlns="http://www.w3.org/2000/svg" xmlns:xlink="http://www.w3.org/1999/xlink" style="background: #FFFFFF;">
    <!-- Generator: Sketch 39.1 (31720) - http://www.bohemiancoding.com/sketch -->
    <title>die</title>
    <desc>Created with Sketch.</desc>
    <defs>
        <path d="M73.372295,157.267311 C72.9358444,154.537316 74.7064862,153.034812 77.3232833,153.910086 L176.375568,187.041367 C181.615489,188.794031 186.429374,194.658563 187.12736,200.137644 L202.399239,320.01958 C203.166821,326.044982 199.214279,329.086744 193.590092,326.821238 L98.7147107,288.604036 C96.1496805,287.570804 93.7174834,284.52626 93.2800489,281.790112 L73.372295,157.267311 Z" id="path-1"></path>
        <mask id="mask-2" maskContentUnits="userSpaceOnUse" maskUnits="objectBoundingBox" x="0" y="0" width="129.188379" height="173.910142" fill="white">
            <use xlink:href="#path-1"></use>
        </mask>
        <path d="M186.33988,199.414999 C185.653819,193.934781 188.974978,187.261943 193.76485,184.506798 L298.133586,124.47367 C302.920345,121.720316 307.36807,123.935558 308.065236,129.401001 L323.985539,254.208376 C324.683879,259.68302 321.290552,266.222434 316.416255,268.809299 L211.423584,324.530546 C206.544844,327.119769 202.032563,324.767222 201.34762,319.295938 L186.33988,199.414999 Z" id="path-3"></path>
        <mask id="mask-4" maskContentUnits="userSpaceOnUse" maskUnits="objectBoundingBox" x="0" y="0" width="137.826497" height="202.293543" fill="white">
            <use xlink:href="#path-3"></use>
        </mask>
        <path d="M82.1705143,155.524039 C76.9504492,153.724465 76.5331909,149.905698 81.220094,147.005998 L175.498653,88.6775932 C180.193816,85.7727828 188.280634,84.7345019 193.552557,86.3559105 L295.220878,117.624557 C300.496611,119.247138 300.908822,122.804546 296.124071,125.580407 L192.649366,185.610994 C187.872454,188.382308 179.77353,189.171861 174.548236,187.370485 L82.1705143,155.524039 Z" id="path-5"></path>
        <mask id="mask-6" maskContentUnits="userSpaceOnUse" maskUnits="objectBoundingBox" x="0" y="0" width="221.498766" height="102.746685" fill="white">
            <use xlink:href="#path-5"></use>
        </mask>
    </defs>
    <g id="Page-1" stroke="none" stroke-width="1" fill="none" fill-rule="evenodd">
        <use id="Rectangle-Copy" stroke="#DEDDDD" mask="url(#mask-2)" stroke-width="2" fill="#F7F7F7" xlink:href="#path-1"></use>
        <use id="Rectangle-2" stroke="#E8E8E8" mask="url(#mask-4)" stroke-width="2" fill="#E3E0E0" xlink:href="#path-3"></use>
        <path d="M117.624838,219 C127.465688,219 129,204.5 129,204.5 C129,204.5 127.465688,190 117.624838,190 C107.783989,190 104,199.910222 104,207.220751 C104,214.531279 107.783989,219 117.624838,219 Z" id="Oval-2" stroke="#979797" stroke-width="1.25" fill="#2A2A2A"></path>
        <path d="M162.766892,293 C172.283226,293 174.855919,286.91429 173.766941,278.672695 C172.677963,270.4311 168.014512,263 158.802932,263 C149.591353,263 148,271.449235 148,278.672695 C148,285.896155 153.250559,293 162.766892,293 Z" id="Oval-2-Copy" stroke="#979797" stroke-width="1.25" fill="#2A2A2A"></path>
        <path d="M223.766892,225 C233.283226,225 235.855919,218.91429 234.766941,210.672695 C233.677963,202.4311 229.014512,195 219.802932,195 C210.591353,195 209,203.449235 209,210.672695 C209,217.896155 214.250559,225 223.766892,225 Z" id="Oval-2-Copy-2" stroke="#979797" stroke-width="1.25" fill="#2A2A2A" transform="translate(222.000000, 210.000000) rotate(1.000000) translate(-222.000000, -210.000000) "></path>
        <path d="M235.766892,288 C245.283226,288 247.855919,281.91429 246.766941,273.672695 C245.677963,265.4311 241.014512,258 231.802932,258 C222.591353,258 221,266.449235 221,273.672695 C221,280.896155 226.250559,288 235.766892,288 Z" id="Oval-2-Copy-3" stroke="#979797" stroke-width="1.25" fill="#2A2A2A"></path>
        <path d="M279.766892,194 C289.283226,194 291.855919,187.91429 290.766941,179.672695 C289.677963,171.4311 285.014512,164 275.802932,164 C266.591353,164 265,172.449235 265,179.672695 C265,186.896155 270.250559,194 279.766892,194 Z" id="Oval-2-Copy-4" stroke="#979797" stroke-width="1.25" fill="#2A2A2A" transform="translate(278.000000, 179.000000) rotate(2.000000) translate(-278.000000, -179.000000) "></path>
        <path d="M294.766892,263 C304.283226,263 306.855919,256.91429 305.766941,248.672695 C304.677963,240.4311 300.014512,233 290.802932,233 C281.591353,233 280,241.449235 280,248.672695 C280,255.896155 285.250559,263 294.766892,263 Z" id="Oval-2-Copy-5" stroke="#979797" stroke-width="1.25" fill="#2A2A2A" transform="translate(293.000000, 248.000000) rotate(4.000000) translate(-293.000000, -248.000000) "></path>
        <use id="Rectangle" stroke="#F1EEEE" mask="url(#mask-6)" stroke-width="2" fill="#FEFCFC" xlink:href="#path-5"></use>
        <path d="M80.0390472,145.832826 C75.2755997,148.632643 72.1902869,155.311386 73.1491468,160.757818 L93.2102282,274.707025 C94.1684888,280.150054 99.0593535,286.304557 104.150504,288.460364 L192.353402,325.809167 C197.437289,327.961898 205.531635,327.644734 210.431921,325.10113 L319.052454,268.719183 C323.953057,266.175414 327.307936,259.676086 326.546425,254.207116 L309.121544,129.066322 C308.359746,123.595298 303.455321,117.881559 298.150408,116.29932 L196.384748,85.9467741 C191.087355,84.3667777 182.937626,85.3519971 178.167984,88.1554557 L80.0390472,145.832826 Z" id="Path-2" stroke="#4A4A4A" stroke-width="4"></path>
        <path d="M187.561953,151 C196.640436,151 204,145.839604 204,139.473934 C204,133.108263 196.640436,125 187.561953,125 C178.483471,125 169,133.108263 169,139.473934 C169,145.839604 178.483471,151 187.561953,151 Z" id="Oval" stroke="#979797" stroke-width="1.25" fill="#2A2A2A"></path>
    </g>
</svg>